<?xml version="1.0" standalone="no"?>
<!DOCTYPE svg PUBLIC "-//W3C//DTD SVG 20010904//EN"
 "http://www.w3.org/TR/2001/REC-SVG-20010904/DTD/svg10.dtd">
<svg version="1.0" xmlns="http://www.w3.org/2000/svg"
 width="700.000000pt" height="700.000000pt" viewBox="0 0 700.000000 700.000000"
 preserveAspectRatio="xMidYMid meet">
<metadata>
Created by potrace 1.11, written by Peter Selinger 2001-2013
</metadata>
<g transform="translate(0.000000,700.000000) scale(0.100000,-0.100000)"
fill="#000000" stroke="none">
<path d="M5190 4606 l0 -201 -1935 0 -1935 0 2 -955 3 -954 2128 -1 c1171 0
2131 3 2134 8 2 4 4 342 4 752 l0 745 22 1 c12 1 102 1 200 1 97 0 177 3 178
6 3 21 4 369 1 382 -3 13 -30 15 -190 14 -103 0 -193 2 -200 4 -10 4 -13 43
-12 176 1 94 1 182 1 196 l-1 26 -200 0 -200 0 0 -200z m-32 -605 l32 -1 0
-550 0 -550 -77 0 c-98 -1 -3281 -1 -3344 0 l-46 0 0 550 c0 549 0 549 21 552
17 2 3298 1 3414 -1z"/>
<path d="M2282 3682 c-57 -22 -127 -97 -142 -153 -48 -176 69 -332 244 -326
101 4 177 54 219 145 57 123 0 274 -123 329 -49 23 -146 25 -198 5z"/>
<path d="M4455 3688 c-154 -57 -215 -236 -128 -374 101 -160 347 -146 431 25
60 123 19 256 -102 330 -42 26 -155 37 -201 19z"/>
</g>
</svg>
